<?xml version="1.0" standalone="no"?>
<!DOCTYPE svg PUBLIC "-//W3C//DTD SVG 20010904//EN"
 "http://www.w3.org/TR/2001/REC-SVG-20010904/DTD/svg10.dtd">
<svg version="1.0" xmlns="http://www.w3.org/2000/svg"
 width="512.000000pt" height="512.000000pt" viewBox="0 0 512.000000 512.000000"
 preserveAspectRatio="xMidYMid meet">
<metadata>
Created by potrace 1.14, written by Peter Selinger 2001-2017
</metadata>
<g transform="translate(0.000000,512.000000) scale(0.100000,-0.100000)"
fill="#000000" stroke="none">
<path d="M2150 4690 c-8 -5 -19 -6 -25 -2 -5 3 -4 -1 3 -10 10 -13 9 -15 -10
-14 -15 1 -22 -4 -20 -13 3 -12 0 -12 -12 -2 -12 10 -18 8 -31 -13 -10 -14
-22 -23 -31 -19 -8 3 -14 0 -14 -6 0 -6 -6 -10 -12 -8 -7 1 -12 -3 -11 -10 1
-6 -4 -17 -13 -23 -12 -11 -14 -10 -9 6 3 10 -1 6 -8 -9 -8 -16 -27 -40 -43
-54 -16 -13 -24 -22 -19 -19 6 2 17 1 25 -5 13 -7 12 -9 -2 -9 -9 0 -20 -5
-24 -12 -4 -7 -3 -8 4 -4 7 4 12 2 12 -3 0 -6 -5 -11 -11 -11 -5 0 -7 -6 -3
-12 4 -7 4 -10 -1 -6 -4 4 -14 3 -21 -3 -10 -8 -11 -16 -3 -31 7 -12 7 -18 1
-14 -5 3 -13 -1 -16 -10 -4 -10 -2 -13 7 -8 9 6 9 5 0 -7 -13 -16 -12 -36 2
-59 7 -13 6 -13 -7 -2 -11 9 -18 10 -23 2 -3 -5 0 -10 7 -10 9 0 9 -3 -2 -10
-10 -6 -11 -10 -2 -10 6 0 12 -10 12 -22 0 -18 -2 -20 -10 -8 -7 12 -9 10 -7
-8 1 -25 7 -27 27 -9 10 8 9 5 -1 -8 -26 -33 -30 -43 -18 -51 7 -4 9 -3 5 4
-3 6 -2 13 3 16 5 3 7 -8 6 -25 -2 -17 -9 -35 -16 -40 -10 -6 -11 -9 -1 -9 6
0 12 -6 12 -14 0 -8 -6 -17 -12 -19 -9 -4 -8 -6 2 -6 9 -1 5 -6 -10 -14 -15
-8 -24 -20 -22 -31 2 -10 -1 -15 -7 -12 -5 4 -13 1 -17 -5 -4 -8 -9 -7 -16 2
-6 10 -7 7 -3 -10 5 -16 4 -21 -4 -17 -6 4 -14 0 -17 -8 -3 -9 -11 -13 -17 -9
-6 3 -7 1 -3 -5 4 -7 2 -12 -3 -12 -6 0 -11 -7 -11 -15 0 -8 -7 -15 -16 -15
-9 0 -12 -5 -8 -12 5 -8 2 -9 -11 -4 -15 5 -16 4 -5 -9 11 -13 10 -14 -5 -8
-15 5 -17 3 -12 -12 7 -16 5 -16 -10 -4 -11 9 -14 10 -9 2 4 -8 2 -13 -4 -13
-6 0 -8 -5 -4 -12 5 -8 2 -9 -10 -5 -13 5 -17 3 -13 -7 3 -8 -1 -20 -9 -27
-12 -10 -13 -9 -9 7 5 13 2 12 -7 -4 -8 -12 -17 -19 -22 -15 -4 4 -4 -1 0 -11
6 -15 4 -17 -6 -11 -10 6 -12 3 -8 -13 4 -16 2 -19 -10 -15 -10 4 -13 2 -8 -5
4 -7 2 -12 -3 -12 -6 0 -11 -5 -11 -11 0 -5 5 -7 12 -3 7 4 8 3 4 -5 -4 -6
-12 -9 -17 -6 -5 4 -9 1 -9 -5 0 -6 -4 -8 -10 -5 -5 3 -7 0 -4 -8 3 -9 -5 -22
-18 -32 -18 -13 -19 -16 -4 -11 15 5 17 4 8 -7 -7 -8 -8 -18 -4 -22 4 -5 -2
-5 -12 -1 -16 6 -17 4 -6 -9 11 -13 11 -16 -1 -13 -8 2 -13 -3 -12 -9 2 -7 -2
-13 -8 -13 -5 0 -7 -4 -4 -10 3 -5 2 -10 -4 -10 -10 0 -7 -31 5 -53 5 -7 0 -6
-11 3 -10 8 -16 10 -12 3 4 -6 3 -14 -2 -17 -5 -4 -8 -18 -6 -32 1 -16 -2 -24
-10 -20 -8 3 -11 -5 -10 -22 1 -15 -2 -35 -7 -44 -6 -12 -5 -18 3 -18 8 0 8
-4 -1 -15 -11 -13 -10 -14 4 -9 9 3 16 1 16 -5 0 -6 -6 -11 -12 -11 -7 0 -22
-8 -33 -16 -19 -16 -19 -16 5 -10 25 6 25 6 -1 -7 -15 -6 -28 -16 -30 -22 -2
-5 -6 -9 -9 -8 -3 0 -12 -6 -20 -15 -13 -14 -12 -15 5 -9 16 6 15 3 -5 -14
-14 -11 -19 -18 -12 -14 6 3 12 2 12 -2 0 -5 -6 -15 -12 -22 -10 -11 -10 -13
0 -7 7 4 12 1 12 -8 0 -9 -6 -16 -12 -16 -9 0 -8 -4 2 -10 13 -8 13 -10 -2
-10 -14 0 -15 -5 -8 -30 5 -19 5 -28 -1 -25 -5 4 -9 2 -9 -3 0 -6 -13 -9 -29
-8 -17 1 -27 -2 -24 -7 3 -4 -3 -15 -13 -23 -11 -9 -13 -13 -6 -9 7 4 12 0 12
-10 0 -9 -5 -13 -11 -9 -7 4 -7 -1 1 -16 7 -12 8 -20 3 -17 -5 3 -15 2 -23 -4
-13 -7 -12 -9 2 -9 20 0 13 -36 -9 -44 -8 -3 -11 -10 -8 -16 3 -5 2 -10 -4
-10 -13 0 -8 -24 8 -44 12 -14 12 -16 -2 -11 -8 4 -18 1 -23 -6 -5 -8 -3 -10
7 -4 11 6 12 5 2 -6 -15 -16 -17 -85 -3 -94 6 -4 7 -12 3 -18 -4 -8 -2 -8 9 1
13 10 17 10 22 -4 3 -9 4 -20 1 -25 -4 -5 1 -6 9 -3 9 4 18 -1 22 -10 3 -9 11
-13 18 -9 6 4 6 0 -2 -9 -9 -11 -10 -18 -2 -23 6 -3 7 -11 4 -17 -4 -7 -2 -8
5 -4 9 6 9 11 0 24 -7 10 0 5 15 -10 29 -30 46 -36 46 -15 0 9 3 8 9 -2 6 -9
11 -10 15 -2 10 16 41 -3 41 -26 0 -11 7 -17 17 -17 10 1 15 -2 12 -7 -5 -8
18 -14 39 -10 5 1 6 -3 2 -8 -3 -6 -13 -8 -23 -5 -9 2 -7 -1 6 -7 13 -7 21
-18 18 -25 -3 -7 0 -12 7 -10 7 1 9 1 4 -1 -4 -3 -5 -8 -2 -13 3 -4 -3 -6 -14
-3 -10 3 -22 -1 -27 -8 -5 -9 -2 -11 12 -6 16 6 17 5 4 -5 -17 -14 -25 -62 -9
-53 5 4 9 1 9 -4 0 -6 -6 -11 -12 -11 -9 0 -8 -4 2 -10 13 -9 13 -10 0 -10
-13 0 -13 -2 0 -9 8 -6 18 -7 23 -4 5 3 4 -4 -2 -15 -7 -13 -7 -23 -2 -27 12
-7 5 -45 -10 -59 -9 -8 -10 -8 -5 1 5 9 2 11 -8 7 -9 -3 -12 -12 -9 -21 4 -9
2 -14 -3 -10 -5 3 -11 -6 -12 -21 -1 -20 1 -23 8 -12 7 11 8 7 5 -15 -2 -17
-4 -34 -4 -38 -1 -5 -7 -5 -13 -1 -10 6 -10 5 -1 -7 10 -12 10 -18 0 -29 -8
-9 -8 -11 0 -6 18 10 21 -27 4 -47 -13 -16 -13 -17 0 -12 10 4 16 0 16 -9 0
-8 -6 -12 -13 -9 -9 3 -11 -2 -7 -17 4 -16 8 -18 14 -8 5 7 9 8 9 2 0 -6 -3
-14 -7 -18 -12 -12 -14 -56 -3 -56 6 0 9 -4 5 -10 -3 -5 -13 -7 -23 -3 -11 3
-9 0 6 -11 23 -18 29 -36 11 -36 -5 0 -7 5 -3 12 4 7 3 8 -4 4 -13 -8 -5 -36
10 -36 5 0 6 -5 3 -10 -4 -6 -12 -7 -18 -3 -7 3 -5 -2 4 -13 8 -10 14 -25 13
-31 -1 -7 -2 -18 -3 -24 0 -5 -7 -7 -13 -3 -10 6 -10 4 -2 -7 6 -8 10 -24 8
-37 -3 -17 0 -21 8 -16 10 6 10 4 2 -7 -15 -20 -16 -61 -1 -53 8 5 8 3 0 -7
-17 -17 -17 -32 0 -23 9 5 9 4 0 -6 -9 -10 -8 -16 6 -29 9 -9 12 -12 5 -8 -7
5 -15 3 -20 -4 -4 -7 -3 -9 3 -6 5 3 22 -5 39 -19 27 -23 27 -24 4 -14 -24 11
-24 11 3 -14 15 -14 22 -26 15 -26 -10 0 -10 -2 1 -9 8 -5 10 -14 6 -21 -5 -9
-4 -11 3 -6 12 7 13 6 17 -30 1 -12 5 -26 9 -32 3 -6 1 -14 -5 -18 -7 -4 -9
-3 -5 4 3 6 2 13 -3 16 -10 7 -9 -20 2 -30 10 -10 9 -26 -1 -20 -4 2 -8 -4 -8
-14 0 -15 3 -17 15 -7 11 9 13 9 8 0 -4 -6 -1 -14 5 -16 10 -4 10 -6 0 -6 -10
-1 -10 -4 0 -15 7 -8 18 -11 23 -8 6 3 3 -3 -5 -13 -8 -10 -10 -16 -4 -12 7 4
15 0 18 -9 3 -8 10 -13 15 -10 4 3 17 -4 27 -16 11 -12 13 -18 6 -14 -8 5 -11
1 -8 -16 2 -13 8 -22 14 -21 6 2 14 -6 17 -17 4 -12 11 -17 18 -13 7 4 5 -2
-3 -12 -8 -10 -10 -16 -5 -14 6 3 19 -3 29 -14 16 -17 17 -19 3 -14 -25 10
-21 -2 13 -33 19 -17 39 -27 51 -25 11 2 17 0 14 -4 -6 -11 29 -51 45 -51 9 0
9 -4 -1 -17 -11 -13 -11 -17 -1 -20 6 -3 9 -10 5 -16 -4 -6 0 -8 10 -4 11 4
14 2 10 -9 -3 -7 0 -14 7 -14 6 0 8 -5 4 -12 -5 -8 -2 -9 10 -5 9 4 15 3 12
-2 -6 -8 17 -33 25 -28 2 1 3 0 2 -2 -1 -2 5 -10 13 -19 9 -8 13 -24 11 -34
-5 -16 -3 -17 9 -7 12 10 13 9 7 -6 -5 -15 -3 -17 11 -12 9 4 15 3 13 -1 -4
-9 40 -52 47 -44 3 3 6 0 6 -5 0 -6 -6 -14 -12 -16 -7 -3 1 -6 17 -6 23 -1 27
-4 15 -11 -13 -8 -12 -10 3 -10 9 0 17 -4 17 -10 0 -5 3 -9 8 -8 4 1 17 -2 30
-6 16 -5 22 -13 17 -24 -3 -9 -3 -13 1 -9 4 4 14 1 22 -6 13 -10 14 -9 7 3 -7
13 -6 13 7 2 8 -7 24 -10 34 -6 16 5 16 4 4 -5 -14 -10 -7 -16 13 -12 5 1 6
-3 3 -8 -4 -5 -2 -12 4 -16 5 -3 10 1 10 11 0 13 4 12 21 -7 12 -15 19 -18 16
-8 -4 12 0 15 20 11 18 -3 21 -7 11 -13 -9 -6 -5 -9 14 -9 15 0 31 -6 35 -12
4 -7 17 -20 27 -28 18 -13 19 -13 13 0 -5 9 -3 9 5 -2 11 -15 13 -15 25 0 12
15 12 15 6 -2 -5 -15 -3 -17 7 -11 10 6 12 4 7 -8 -3 -10 -2 -17 3 -17 6 0 10
5 10 11 0 8 5 7 15 -1 9 -7 18 -10 22 -7 3 4 12 2 20 -5 11 -8 12 -7 7 5 -4
12 0 15 15 14 15 -1 17 -4 10 -14 -8 -9 -4 -10 20 -3 28 8 31 6 31 -13 0 -20
1 -20 13 -2 10 13 16 15 21 6 4 -6 12 -8 18 -5 7 4 8 2 4 -5 -6 -9 -12 -9 -24
1 -12 9 -11 6 2 -10 19 -22 32 -30 22 -13 -3 5 1 12 10 15 8 3 12 2 9 -4 -8
-14 28 -13 42 1 8 8 13 7 18 -2 5 -8 4 -10 -3 -5 -18 11 -14 0 5 -15 14 -12
16 -12 8 0 -6 11 -4 13 8 8 9 -3 19 -1 23 5 4 6 3 8 -4 4 -6 -3 -13 -2 -16 3
-9 14 19 7 39 -9 9 -7 15 -9 14 -4 -3 20 2 24 15 12 8 -7 11 -17 8 -22 -3 -5
0 -6 7 -2 6 4 9 12 6 17 -9 13 9 11 24 -3 11 -11 12 -10 6 1 -6 11 -4 13 8 8
11 -4 17 -1 17 8 0 8 9 19 20 25 11 6 18 16 14 21 -4 7 1 7 15 0 12 -7 21 -8
20 -4 -3 20 2 31 17 37 15 6 15 4 3 -10 -13 -16 -12 -16 8 -4 12 8 21 19 20
24 -1 6 10 11 25 10 17 -1 25 3 22 11 -7 16 23 28 32 13 5 -7 2 -8 -6 -3 -8 5
-11 4 -6 -3 4 -6 13 -9 22 -5 12 4 12 8 2 22 -11 14 -11 14 3 3 18 -13 81 -13
73 0 -3 5 -10 5 -16 2 -6 -4 -8 -2 -4 4 3 6 15 9 26 7 11 -2 20 0 20 6 0 5 8
9 18 9 14 0 15 2 2 10 -13 8 -12 10 4 10 12 0 16 5 13 14 -4 10 -1 13 9 9 7
-3 14 0 14 6 0 6 6 10 13 8 6 -1 11 3 10 10 -2 7 6 10 17 8 11 -2 19 -1 19 3
-3 20 2 25 11 12 8 -13 11 -11 16 7 8 27 21 30 27 6 4 -16 5 -16 6 1 1 12 6
16 17 12 8 -3 12 -2 9 4 -3 6 1 13 9 16 9 3 16 10 16 16 0 5 -4 7 -8 4 -5 -3
-9 2 -9 10 0 8 5 13 12 11 6 -3 20 2 30 10 16 12 16 14 3 10 -12 -4 -15 -2
-11 8 3 8 9 12 14 9 5 -3 9 2 9 11 0 9 -5 13 -11 9 -6 -3 -4 5 6 19 10 17 23
24 36 22 11 -2 17 0 14 6 -4 5 -1 9 5 9 6 0 8 4 5 10 -4 6 1 7 11 3 12 -4 15
-3 10 5 -4 7 -1 12 9 12 9 0 13 5 10 10 -4 6 -12 8 -18 4 -7 -3 3 7 21 23 18
15 32 32 32 37 0 6 -7 1 -15 -10 -14 -18 -14 -18 -8 3 3 13 13 23 22 23 14 0
14 2 1 10 -13 8 -12 10 3 10 9 0 17 5 17 11 0 5 -6 7 -12 3 -10 -6 -10 -5 -1
8 7 8 9 19 5 24 -4 4 0 3 9 -4 14 -10 16 -9 14 12 -2 19 1 24 15 21 10 -2 17
2 17 8 -1 31 4 48 12 43 5 -3 12 1 15 10 9 25 7 27 -11 13 -14 -12 -14 -10 2
14 9 15 25 32 34 38 14 9 14 10 -1 5 -12 -3 -18 0 -18 9 0 9 6 12 18 9 14 -5
14 -3 -2 10 -18 15 -18 16 -2 16 9 0 14 5 11 10 -4 6 -12 8 -18 4 -7 -3 -4 1
6 9 13 11 14 16 6 19 -10 3 -9 10 3 26 8 12 18 19 21 15 4 -3 7 1 7 11 0 11 4
15 13 10 7 -5 6 0 -3 11 -14 17 -13 18 5 12 20 -7 20 -7 1 8 -19 14 -11 21 19
15 5 -1 7 2 3 6 -4 4 -3 13 3 20 9 11 7 15 -5 20 -15 6 -15 8 1 19 17 13 17
14 0 21 -15 5 -16 9 -5 15 8 6 9 9 1 9 -19 0 -9 27 20 54 15 14 28 36 29 50 2
17 6 22 13 16 12 -10 12 40 0 59 -3 6 -2 11 2 11 11 0 9 67 -2 78 -5 4 -5 1 0
-7 5 -10 4 -12 -4 -7 -15 10 -4 26 17 26 10 0 13 3 7 8 -6 4 -11 30 -10 57 0
30 -6 57 -14 68 -13 16 -13 17 0 12 10 -4 16 0 16 9 0 8 -4 13 -9 10 -4 -3 -5
3 -1 12 5 13 2 16 -8 12 -10 -4 -15 1 -15 13 0 11 5 17 13 15 7 -3 10 1 6 9
-3 8 -9 13 -13 10 -11 -7 -7 69 5 77 6 4 2 8 -7 8 -10 0 -18 5 -18 11 0 5 5 7
10 4 18 -11 11 4 -12 26 -20 19 -20 21 -4 15 18 -6 18 -5 1 20 -9 15 -13 24
-7 20 5 -3 10 5 10 19 0 14 -4 23 -8 20 -3 -2 -7 3 -7 11 0 8 6 13 13 10 8 -3
11 0 7 10 -3 7 -10 14 -16 14 -6 0 -2 7 9 15 19 15 19 15 -1 9 -19 -5 -19 -5
-2 9 17 14 14 52 -4 41 -5 -3 -5 6 1 20 6 17 6 27 -2 32 -7 5 -8 2 -4 -7 4 -8
0 -5 -8 5 -9 11 -16 24 -16 29 0 4 -4 6 -8 3 -5 -3 -9 1 -9 9 0 8 4 12 8 10 8
-6 6 11 -6 37 -4 10 -11 15 -16 12 -5 -3 -9 -1 -9 5 0 5 5 13 10 16 16 10 0
27 -19 21 -12 -5 -11 -2 3 9 17 13 18 15 3 15 -9 0 -17 5 -17 11 0 5 5 7 12 3
7 -4 8 -3 4 5 -6 9 -11 9 -24 -1 -14 -11 -15 -10 -8 6 7 20 7 20 -15 0 -12
-10 -19 -13 -15 -6 4 6 4 12 -1 12 -4 0 -14 12 -21 28 -11 23 -10 29 5 39 12
9 13 13 3 13 -7 0 -10 3 -7 6 3 4 2 16 -4 27 -7 12 -7 17 -1 13 6 -3 13 0 16
6 3 7 3 3 1 -9 -3 -12 -1 -24 4 -28 6 -3 9 0 6 7 -3 7 0 20 5 28 9 13 11 13
20 0 6 -10 10 -11 10 -2 0 6 9 12 21 12 13 0 18 4 13 13 -5 8 -2 7 9 -2 15
-12 17 -12 12 1 -4 10 1 17 13 20 14 4 19 13 17 32 -2 14 1 26 6 26 4 0 5 7 2
17 -4 11 -3 14 6 9 6 -4 11 -4 10 1 -4 24 2 53 11 48 6 -3 10 -2 10 4 0 5 -6
12 -12 14 -10 4 -10 6 0 6 6 1 12 8 12 17 0 8 4 13 9 10 5 -3 12 1 15 10 5 12
2 15 -11 10 -16 -5 -16 -4 -3 7 19 15 45 62 31 52 -16 -9 -13 7 6 34 9 14 12
21 6 18 -21 -13 -20 19 0 66 11 26 25 47 30 47 5 0 3 -8 -4 -17 -11 -15 -11
-16 1 -6 15 14 23 63 10 63 -9 0 -8 19 3 37 4 6 3 14 -3 18 -7 4 -7 12 0 25
12 23 13 33 2 26 -5 -3 -9 1 -9 9 0 8 3 12 7 10 4 -2 7 2 7 10 0 8 -4 12 -9 9
-4 -3 -8 0 -8 6 0 6 -3 9 -7 7 -5 -3 -9 6 -9 19 -1 13 3 24 9 24 6 0 7 3 4 6
-4 4 -14 1 -22 -6 -13 -11 -16 -11 -13 1 2 8 7 17 12 21 6 4 -9 5 -32 4 -40
-3 -60 12 -47 34 3 5 0 12 -6 16 -8 5 -5 12 9 23 l21 16 -20 25 c-12 14 -18
20 -15 14 3 -6 -1 -11 -9 -11 -8 0 -12 4 -9 9 9 14 -20 45 -39 42 -15 -2 -16
0 -5 14 7 9 8 13 2 9 -7 -4 -14 0 -17 7 -3 8 -1 17 6 20 7 4 1 4 -13 2 -23 -5
-23 -4 -7 8 19 15 24 31 5 20 -10 -6 -10 -4 0 8 9 12 10 18 2 23 -7 4 -9 16
-7 27 4 14 -2 22 -20 29 -13 5 -29 6 -35 3 -7 -4 -8 -2 -4 4 4 7 1 12 -9 12
-9 0 -14 4 -11 9 7 11 -22 23 -36 15 -5 -3 -12 4 -15 16 -4 15 -11 20 -24 17
-11 -3 -17 -1 -14 3 3 5 1 11 -5 15 -6 4 -8 11 -5 16 4 5 -1 9 -10 9 -9 0 -13
-4 -10 -10 3 -5 1 -10 -4 -10 -6 0 -11 8 -12 18 0 9 -3 12 -5 5 -3 -6 -17 -9
-32 -7 -32 6 -33 7 -35 32 0 11 -4 19 -8 16 -4 -2 -10 4 -14 15 -3 11 -13 22
-21 25 -10 4 -13 1 -9 -7 4 -6 1 -5 -7 3 -8 10 -30 16 -60 15 -41 0 -48 -3
-48 -20 0 -15 -3 -17 -9 -7 -12 19 -16 19 -40 -2 -19 -17 -21 -17 -27 -2 -3 9
-10 13 -15 10 -5 -3 -9 3 -10 13 0 16 -1 16 -9 -2 -7 -17 -9 -17 -9 -2 -1 19
-21 24 -21 5 0 -6 -3 -8 -6 -5 -4 4 -2 13 4 20 9 11 7 13 -11 12 -28 -2 -48 5
-42 15 2 4 -7 6 -21 4 -20 -2 -23 0 -14 11 7 8 7 15 1 19 -5 4 -14 -2 -20 -11
-6 -11 -11 -13 -11 -5 0 9 -7 11 -20 7 -19 -6 -25 3 -21 28 1 5 -4 5 -10 1 -6
-3 -16 0 -21 7 -7 10 -8 8 -5 -9 5 -22 4 -23 -12 -8 -10 9 -22 13 -26 9 -5 -5
-3 0 4 10 12 15 12 17 -4 11 -13 -5 -16 -4 -11 4 5 8 0 12 -12 12 -22 0 -34
22 -26 45 4 8 1 15 -5 15 -6 0 -11 7 -11 15 0 7 -8 19 -17 25 -17 11 -17 11 1
6 15 -5 17 -4 8 7 -9 10 -8 17 1 27 7 8 7 10 1 7 -7 -4 -11 3 -11 18 0 15 4
22 11 19 6 -3 1 3 -11 13 -12 10 -24 29 -26 43 -6 39 -18 60 -30 53 -6 -4 -8
0 -4 10 4 10 2 16 -6 14 -7 -1 -11 3 -10 10 2 8 -4 10 -14 6 -13 -5 -15 -2 -9
12 4 11 4 16 0 13 -4 -4 -15 4 -26 17 -10 14 -22 24 -26 23 -4 -1 -18 2 -30 6
-17 6 -22 13 -19 27 3 10 0 22 -5 26 -7 4 -8 1 -4 -8 4 -8 1 -5 -8 5 -8 10
-13 24 -9 30 3 6 3 8 -2 4 -4 -4 -14 0 -22 8 -9 8 -22 13 -30 9 -11 -3 -13 -1
-9 10 3 8 1 15 -4 15 -6 0 -10 -4 -10 -10 0 -5 -5 -10 -11 -10 -5 0 -7 5 -3
12 5 7 3 8 -5 4 -7 -5 -10 -14 -8 -20 3 -7 0 -13 -6 -13 -7 0 -21 -4 -32 -9
-18 -7 -18 -6 -7 9 12 14 11 15 -17 7 -25 -7 -33 -5 -41 8 -7 13 -9 14 -10 3
0 -11 -4 -10 -16 5 -11 14 -17 16 -21 6 -4 -10 -8 -10 -21 0 -12 11 -16 11
-20 0 -3 -9 -8 -10 -16 -3 -7 6 -17 6 -26 1z m431 -147 c13 -16 12 -17 -3 -4
-17 13 -22 21 -14 21 2 0 10 -8 17 -17z m94 -102 c3 -5 2 -12 -3 -15 -5 -3 -9
1 -9 9 0 17 3 19 12 6z m-900 -3521 c3 -6 -1 -7 -9 -4 -18 7 -21 14 -7 14 6 0
13 -4 16 -10z"/>
<path d="M1920 4545 c-7 -9 -8 -15 -2 -15 5 0 12 7 16 15 3 8 4 15 2 15 -2 0
-9 -7 -16 -15z"/>
<path d="M3845 3340 c-3 -6 1 -7 9 -4 18 7 21 14 7 14 -6 0 -13 -4 -16 -10z"/>
<path d="M3810 3175 c-11 -13 -10 -14 4 -9 9 3 16 10 16 15 0 13 -6 11 -20 -6z"/>
<path d="M1365 1781 c-3 -5 -2 -12 3 -15 5 -3 9 1 9 9 0 17 -3 19 -12 6z"/>
<path d="M3730 1579 c0 -5 5 -7 10 -4 6 3 10 8 10 11 0 2 -4 4 -10 4 -5 0 -10
-5 -10 -11z"/>
<path d="M3645 1330 c-3 -6 1 -7 9 -4 18 7 21 14 7 14 -6 0 -13 -4 -16 -10z"/>
<path d="M1530 1200 c0 -5 5 -10 11 -10 5 0 7 5 4 10 -3 6 -8 10 -11 10 -2 0
-4 -4 -4 -10z"/>
<path d="M1675 990 c-3 -5 -1 -10 4 -10 6 0 11 5 11 10 0 6 -2 10 -4 10 -3 0
-8 -4 -11 -10z"/>
</g>
</svg>
